# xmcd CD database file generated by OrangeCD 5.1
#
# Track frame offsets:
#	150
#	18815
#	37216
#	50515
#	63626
#	78781
#	92634
#	110516
#	122718
#	138577
#	154583
#
# Disc length: 2355 seconds
#
# Revision: 0
# Processed by: cddbd v1.5PL3 Copyright (c) Steve Scherf et al.
# Submitted via: OrangeCD 5.1
#
DISCID=8d09310b
DTITLE=Gilly Darbey - Blues Movin' In
DYEAR=2003
DGENRE=Blues
TTITLE0=Make You Feel My Love
TTITLE1=Ain't No Use Baby
TTITLE2=I Feel The Blues Movin' In
TTITLE3=I Envy The Wind
TTITLE4=Practising Walking Away
TTITLE5=Over But I Can't Let Go
TTITLE6=Will You Still Love Me Tomorrow
TTITLE7=Pride and Joy
TTITLE8=Shreveport Blues
TTITLE9=Bernadette
TTITLE10=Who Knows Where The Time Goes
EXTD=
EXTT0=
EXTT1=
EXTT2=
EXTT3=
EXTT4=
EXTT5=
EXTT6=
EXTT7=
EXTT8=
EXTT9=
EXTT10=
PLAYORDER=
